<svg xmlns="http://www.w3.org/2000/svg" viewBox="0 0 64 64">
  <defs>
    <linearGradient id="g" x1="0%" y1="0%" x2="100%" y2="100%">
      <stop offset="0%" stop-color="#4CAF50"/>
      <stop offset="100%" stop-color="#2E7D32"/>
    </linearGradient>
  </defs>
  <circle cx="32" cy="32" r="30" fill="#102115" stroke="#355a33" stroke-width="2"/>
  <g transform="translate(32 34)" fill="url(#g)" stroke="#1B5E20" stroke-width="1.2">
    <path d="M0-18 C-2 -30 2 -30 0 -18"/>
    <path d="M-6-10 C-10 -22 -4 -22 -6 -10"/>
    <path d="M6-10 C10 -22 4 -22 6 -10"/>
    <path d="M-11 -2 C-16 -12 -8 -14 -11 -2"/>
    <path d="M11 -2 C16 -12 8 -14 11 -2"/>
    <path d="M-14 4 C-18 -2 -12 -4 -14 4"/>
    <path d="M14 4 C18 -2 12 -4 14 4"/>
  </g>
  <rect x="24" y="40" width="16" height="12" rx="3" fill="#6D4C41" stroke="#4E342E"/>
</svg>