<svg xmlns="http://www.w3.org/2000/svg" viewBox="0 0 100 100">
  <defs>
    <linearGradient id="lightGradient" x1="0%" y1="0%" x2="100%" y2="100%">
      <stop offset="0%" style="stop-color:#FFF176"/>
      <stop offset="50%" style="stop-color:#FFEB3B"/>
      <stop offset="100%" style="stop-color:#FFC107"/>
    </linearGradient>
    <radialGradient id="bulbGradient" cx="50%" cy="50%" r="50%">
      <stop offset="0%" style="stop-color:#FFFFFF" stop-opacity="0.8"/>
      <stop offset="70%" style="stop-color:#FFF176" stop-opacity="0.6"/>
      <stop offset="100%" style="stop-color:#FFB300" stop-opacity="0.3"/>
    </radialGradient>
  </defs>
  
  <!-- Light fixture housing -->
  <rect x="20" y="15" width="60" height="15" fill="#424242" rx="7"/>
  <rect x="22" y="17" width="56" height="11" fill="#616161" rx="5"/>
  
  <!-- Mounting bracket -->
  <rect x="47" y="10" width="6" height="8" fill="#424242" rx="1"/>
  
  <!-- LED strip -->
  <rect x="25" y="20" width="50" height="6" fill="#1A1A1A" rx="3"/>
  
  <!-- LED lights -->
  <circle cx="30" cy="23" r="2" fill="url(#lightGradient)"/>
  <circle cx="40" cy="23" r="2" fill="url(#lightGradient)"/>
  <circle cx="50" cy="23" r="2" fill="url(#lightGradient)"/>
  <circle cx="60" cy="23" r="2" fill="url(#lightGradient)"/>
  <circle cx="70" cy="23" r="2" fill="url(#lightGradient)"/>
  
  <!-- Light beam -->
  <polygon points="25,30 75,30 65,70 35,70" fill="url(#bulbGradient)" opacity="0.6"/>
  
  <!-- Power indicator -->
  <circle cx="75" cy="20" r="1.5" fill="#4CAF50"/>
  
  <!-- Ventilation slots -->
  <line x1="25" y1="19" x2="25" y2="25" stroke="#757575" stroke-width="0.5"/>
  <line x1="27" y1="19" x2="27" y2="25" stroke="#757575" stroke-width="0.5"/>
  <line x1="73" y1="19" x2="73" y2="25" stroke="#757575" stroke-width="0.5"/>
  <line x1="75" y1="19" x2="75" y2="25" stroke="#757575" stroke-width="0.5"/>
</svg>