<svg xmlns="http://www.w3.org/2000/svg" viewBox="0 0 100 100">
  <defs>
    <linearGradient id="leafGradient" x1="0%" y1="0%" x2="100%" y2="100%">
      <stop offset="0%" style="stop-color:#7CB342"/>
      <stop offset="50%" style="stop-color:#8BC34A"/>
      <stop offset="100%" style="stop-color:#4CAF50"/>
    </linearGradient>
  </defs>
  
  <!-- Stem -->
  <line x1="50" y1="80" x2="50" y2="40" stroke="#795548" stroke-width="3"/>
  
  <!-- Main cannabis leaf -->
  <g transform="translate(50, 30)">
    <!-- Center leaflet -->
    <path d="M 0,-10 C -2,-25 2,-25 0,-10" fill="url(#leafGradient)" stroke="#388E3C" stroke-width="0.5"/>
    
    <!-- Side leaflets -->
    <path d="M -8,-5 C -12,-18 -6,-20 -8,-5" fill="url(#leafGradient)" stroke="#388E3C" stroke-width="0.5"/>
    <path d="M 8,-5 C 12,-18 6,-20 8,-5" fill="url(#leafGradient)" stroke="#388E3C" stroke-width="0.5"/>
    
    <!-- Outer leaflets -->
    <path d="M -15,2 C -20,-8 -12,-12 -15,2" fill="url(#leafGradient)" stroke="#388E3C" stroke-width="0.5"/>
    <path d="M 15,2 C 20,-8 12,-12 15,2" fill="url(#leafGradient)" stroke="#388E3C" stroke-width="0.5"/>
    
    <!-- Bottom leaflets -->
    <path d="M -18,8 C -22,0 -16,-2 -18,8" fill="url(#leafGradient)" stroke="#388E3C" stroke-width="0.5"/>
    <path d="M 18,8 C 22,0 16,-2 18,8" fill="url(#leafGradient)" stroke="#388E3C" stroke-width="0.5"/>
  </g>
  
  <!-- Pot -->
  <rect x="35" y="75" width="30" height="20" fill="#8D6E63" rx="3"/>
  <rect x="37" y="77" width="26" height="16" fill="#6D4C41" rx="2"/>
</svg>