<svg xmlns="http://www.w3.org/2000/svg" viewBox="0 0 100 100">
  <defs>
    <linearGradient id="youngLeafGradient" x1="0%" y1="0%" x2="100%" y2="100%">
      <stop offset="0%" style="stop-color:#9CCC65"/>
      <stop offset="100%" style="stop-color:#689F38"/>
    </linearGradient>
  </defs>
  
  <!-- Stem -->
  <line x1="50" y1="85" x2="50" y2="50" stroke="#795548" stroke-width="2"/>
  
  <!-- Small cannabis leaves -->
  <g transform="translate(50, 45)">
    <!-- Center leaflet -->
    <path d="M 0,-5 C -1,-12 1,-12 0,-5" fill="url(#youngLeafGradient)" stroke="#558B2F" stroke-width="0.5"/>
    
    <!-- Side leaflets -->
    <path d="M -5,-2 C -8,-8 -4,-10 -5,-2" fill="url(#youngLeafGradient)" stroke="#558B2F" stroke-width="0.5"/>
    <path d="M 5,-2 C 8,-8 4,-10 5,-2" fill="url(#youngLeafGradient)" stroke="#558B2F" stroke-width="0.5"/>
    
    <!-- Small outer leaflets -->
    <path d="M -8,2 C -10,-2 -6,-4 -8,2" fill="url(#youngLeafGradient)" stroke="#558B2F" stroke-width="0.5"/>
    <path d="M 8,2 C 10,-2 6,-4 8,2" fill="url(#youngLeafGradient)" stroke="#558B2F" stroke-width="0.5"/>
  </g>
  
  <!-- Pot -->
  <rect x="38" y="80" width="24" height="15" fill="#8D6E63" rx="2"/>
  <rect x="40" y="82" width="20" height="11" fill="#6D4C41" rx="1"/>
</svg>