<svg width="64" height="64" viewBox="0 0 64 64" xmlns="http://www.w3.org/2000/svg">
  <defs>
    <linearGradient id="baseGrad" x1="0" x2="0" y1="0" y2="1">
      <stop offset="0%" stop-color="#666" />
      <stop offset="100%" stop-color="#222" />
    </linearGradient>
    <linearGradient id="sprayGrad" x1="0" x2="1" y1="0" y2="0">
      <stop offset="0%" stop-color="#7dd3fc" stop-opacity="0" />
      <stop offset="50%" stop-color="#38bdf8" stop-opacity="0.8" />
      <stop offset="100%" stop-color="#0ea5e9" stop-opacity="0" />
    </linearGradient>
  </defs>
  <!-- Base -->
  <rect x="26" y="44" width="12" height="16" rx="2" fill="url(#baseGrad)" />
  <rect x="24" y="40" width="16" height="6" rx="3" fill="#444" />
  <!-- Head -->
  <g transform="translate(32 38)" stroke="#ccc" stroke-width="2" stroke-linecap="round">
    <line x1="0" y1="0" x2="14" y2="-6" />
    <line x1="0" y1="0" x2="14" y2="0" />
    <line x1="0" y1="0" x2="14" y2="6" />
    <line x1="0" y1="0" x2="-14" y2="-6" />
    <line x1="0" y1="0" x2="-14" y2="0" />
    <line x1="0" y1="0" x2="-14" y2="6" />
  </g>
  <!-- Spray animation groups -->
  <g>
    <path d="M32 38 q18 -6 30 -4" stroke="url(#sprayGrad)" stroke-width="3" fill="none">
      <animate attributeName="stroke-opacity" values="0;1;0" dur="1.2s" repeatCount="indefinite" />
    </path>
    <path d="M32 38 q18 0 30 2" stroke="url(#sprayGrad)" stroke-width="3" fill="none">
      <animate attributeName="stroke-opacity" values="0;1;0" dur="1.2s" begin="0.2s" repeatCount="indefinite" />
    </path>
    <path d="M32 38 q18 6 30 8" stroke="url(#sprayGrad)" stroke-width="3" fill="none">
      <animate attributeName="stroke-opacity" values="0;1;0" dur="1.2s" begin="0.4s" repeatCount="indefinite" />
    </path>
    <path d="M32 38 q-18 -6 -30 -4" stroke="url(#sprayGrad)" stroke-width="3" fill="none">
      <animate attributeName="stroke-opacity" values="0;1;0" dur="1.2s" begin="0.1s" repeatCount="indefinite" />
    </path>
    <path d="M32 38 q-18 0 -30 2" stroke="url(#sprayGrad)" stroke-width="3" fill="none">
      <animate attributeName="stroke-opacity" values="0;1;0" dur="1.2s" begin="0.3s" repeatCount="indefinite" />
    </path>
    <path d="M32 38 q-18 6 -30 8" stroke="url(#sprayGrad)" stroke-width="3" fill="none">
      <animate attributeName="stroke-opacity" values="0;1;0" dur="1.2s" begin="0.5s" repeatCount="indefinite" />
    </path>
  </g>
</svg>
