<svg xmlns="http://www.w3.org/2000/svg" viewBox="0 0 100 100">
  <defs>
    <linearGradient id="fanGradient" x1="0%" y1="0%" x2="100%" y2="100%">
      <stop offset="0%" style="stop-color:#78909C"/>
      <stop offset="100%" style="stop-color:#455A64"/>
    </linearGradient>
  </defs>
  
  <!-- Fan housing -->
  <circle cx="50" cy="50" r="35" fill="url(#fanGradient)" stroke="#37474F" stroke-width="2"/>
  
  <!-- Inner rim -->
  <circle cx="50" cy="50" r="30" fill="none" stroke="#546E7A" stroke-width="1"/>
  
  <!-- Fan blades -->
  <g transform-origin="50 50">
    <animateTransform attributeName="transform" type="rotate" values="0; 360" dur="0.5s" repeatCount="indefinite"/>
    
    <!-- Blade 1 -->
    <path d="M 50,20 Q 65,35 50,50 Q 35,35 50,20" fill="#607D8B" stroke="#455A64" stroke-width="1"/>
    
    <!-- Blade 2 -->
    <path d="M 80,50 Q 65,65 50,50 Q 65,35 80,50" fill="#607D8B" stroke="#455A64" stroke-width="1"/>
    
    <!-- Blade 3 -->
    <path d="M 50,80 Q 35,65 50,50 Q 65,65 50,80" fill="#607D8B" stroke="#455A64" stroke-width="1"/>
    
    <!-- Blade 4 -->
    <path d="M 20,50 Q 35,35 50,50 Q 35,65 20,50" fill="#607D8B" stroke="#455A64" stroke-width="1"/>
  </g>
  
  <!-- Center hub -->
  <circle cx="50" cy="50" r="8" fill="#37474F" stroke="#263238" stroke-width="1"/>
  <circle cx="50" cy="50" r="3" fill="#424242"/>
  
  <!-- Mounting brackets -->
  <rect x="47" y="10" width="6" height="8" fill="#424242" rx="1"/>
  <rect x="47" y="82" width="6" height="8" fill="#424242" rx="1"/>
  <rect x="10" y="47" width="8" height="6" fill="#424242" rx="1"/>
  <rect x="82" y="47" width="8" height="6" fill="#424242" rx="1"/>
  
  <!-- Power indicator -->
  <circle cx="25" cy="25" r="2" fill="#4CAF50">
    <animate attributeName="opacity" values="1; 0.3; 1" dur="2s" repeatCount="indefinite"/>
  </circle>
  
  <!-- Airflow indicators -->
  <g stroke="#81C784" stroke-width="1.5" fill="none" opacity="0.6">
    <path d="M 10,45 Q 15,40 20,45 Q 25,50 30,45">
      <animateTransform attributeName="transform" type="translateX" values="0; 80; 0" dur="2s" repeatCount="indefinite"/>
    </path>
    <path d="M 10,50 Q 15,45 20,50 Q 25,55 30,50">
      <animateTransform attributeName="transform" type="translateX" values="0; 80; 0" dur="1.8s" repeatCount="indefinite"/>
    </path>
    <path d="M 10,55 Q 15,50 20,55 Q 25,60 30,55">
      <animateTransform attributeName="transform" type="translateX" values="0; 80; 0" dur="2.2s" repeatCount="indefinite"/>
    </path>
  </g>
</svg>